<svg id="Capa_1" enable-background="new 0 0 512 512" height="512" viewBox="0 0 512 512" width="512" xmlns="http://www.w3.org/2000/svg"><g><path d="m441.198 476.8c0 19.409 15.791 35.2 35.2 35.2 19.631 0 35.602-15.971 35.602-35.602v-192.163h-70.802z"/><path d="m67.469 67.397h276.261v71.204h-276.261z"/><path d="m220.599 236.07h123.131v104.938h-123.131z"/><path d="m411.198 0h-411.198v459.531c0 28.932 23.537 52.469 52.469 52.469h369.092c-6.546-10.162-10.362-22.24-10.362-35.2v-476.8zm-373.729 206.07h115.661v30h-115.661zm0 67.469h115.661v30h-115.661zm0 67.469h115.661v30h-115.661zm336.26 97.469h-336.26v-30h336.261v30zm0-67.469h-183.13v-164.938h183.131v164.938zm0-202.406h-336.26v-131.205h336.261v131.205z"/></g></svg>