<?xml version="1.0" encoding="iso-8859-1"?>
<!-- Generator: Adobe Illustrator 19.0.0, SVG Export Plug-In . SVG Version: 6.00 Build 0)  -->
<svg version="1.1" id="Capa_1" xmlns="http://www.w3.org/2000/svg" xmlns:xlink="http://www.w3.org/1999/xlink" x="0px" y="0px"
	 viewBox="0 0 512.001 512.001" style="enable-background:new 0 0 512.001 512.001;" xml:space="preserve">
<g>
	<g>
		<path d="M136.995,356H110v-44.817c0-5.523-4.477-10-10-10s-10,4.477-10,10V366c0,5.523,4.477,10,10,10h36.995
			c5.523,0,10-4.477,10-10C146.995,360.478,142.518,356,136.995,356z"/>
	</g>
</g>
<g>
	<g>
		<path d="M132.003,189.001h-0.236c-5.523,0-10,4.477-10,10c0,5.523,4.477,10,10,10h0.236c5.523,0,10-4.477,10-10
			S137.526,189.001,132.003,189.001z"/>
	</g>
</g>
<g>
	<g>
		<path d="M432.236,189.001H432c-5.522,0-10,4.477-10,10c0,5.523,4.478,10,10,10h0.236c5.522,0,10-4.477,10-10
			C442.236,193.479,437.758,189.001,432.236,189.001z"/>
	</g>
</g>
<g>
	<g>
		<path d="M482.002,73.999h-10.001V56c0-5.523-4.478-10-10-10c-5.523,0-10,4.477-10,10V74h-19.999V56c0-5.523-4.478-10-10-10
			c-5.523,0-10,4.477-10,10V74h-20V56c0-5.523-4.478-10-10-10c-5.523,0-10,4.477-10,10V74h-20V56c0-5.523-4.478-10-10-10
			c-5.523,0-10,4.477-10,10V74h-20V56c0-5.523-4.478-10-10-10c-5.523,0-10,4.477-10,10V74h-20V56c0-5.523-4.478-10-10-10
			c-5.523,0-10,4.477-10,10V74h-20.001V56c0-5.523-4.477-10-10-10s-10,4.477-10,10V74h-19.999V56c0-5.523-4.477-10-10-10
			c-5.523,0-10,4.477-10,10V74h-20V56c0-5.523-4.477-10-10-10c-5.523,0-10,4.477-10,10V74h-20V56c0-5.523-4.477-10-10-10
			c-5.523,0-10,4.477-10,10V74H82.001c-16.542,0-30,13.458-30,30v174.297C21.036,295.311,0,328.244,0,366
			c0,55.14,44.86,100,100.001,100c37.757,0,70.69-21.036,87.705-52.001h294.296c16.542,0,29.999-13.458,29.999-30v-280
			C512.001,87.457,498.544,73.999,482.002,73.999z M100.001,446C55.888,446,20,410.113,20,366c0-44.113,35.888-80,80.001-80
			c44.112,0,80,35.888,80,80S144.113,446,100.001,446z M492.001,383.999c0,5.514-4.485,10-9.999,10h-27.166l37.165-37.165V383.999z
			 M440.693,379.857v-23.396c0-7.592,6.177-13.77,13.77-13.77h23.395L440.693,379.857z M492.001,188.999h-31.034
			c-5.522,0-10,4.477-10,10c0,5.523,4.478,10,10,10h31.034v113.692h-37.538c-18.621,0-33.77,15.149-33.77,33.77v37.538H196.006
			c2.597-8.889,3.995-18.283,3.995-27.999c0-55.14-44.86-100-100-100c-9.716,0-19.111,1.398-28,3.995v-60.996h31.035
			c5.523,0,10-4.477,10-10c0-5.523-4.477-10-10-10H72.001v-35h420V188.999z M492.001,133.999h-420v-30c0-5.514,4.486-10,10-10
			h10.001v4.936c0,5.523,4.477,10,10,10s10-4.477,10-10V94h20v4.936c0,5.523,4.477,10,10,10s10-4.477,10-10V94h20v4.936
			c0,5.523,4.477,10,10,10s10-4.477,10-10V94h19.999v4.936c0,5.523,4.477,10,10,10c5.523,0,10-4.477,10-10V94h20.001v4.936
			c0,5.523,4.477,10,10,10c5.522,0,10-4.477,10-10V94h20v4.936c0,5.523,4.477,10,10,10c5.522,0,10-4.477,10-10V94h20v4.936
			c0,5.523,4.477,10,10,10c5.522,0,10-4.477,10-10V94h20v4.936c0,5.523,4.477,10,10,10c5.522,0,10-4.477,10-10V94h20v4.936
			c0,5.523,4.477,10,10,10c5.522,0,10-4.477,10-10V94h19.999v4.936c0,5.523,4.477,10,10,10c5.522,0,10-4.477,10-10V94h10.001
			c5.514,0,9.999,4.486,9.999,10V133.999z"/>
	</g>
</g>
<g>
	<g>
		<path d="M382.002,188.999h-50h-50.001h-50h-50c-5.523,0-10,4.477-10,10v50c0,5.523,4.477,10,10,10h40v90c0,5.523,4.477,10,10,10
			h50h50.001h50c5.522,0,10-4.477,10-10v-150C392.002,193.477,387.524,188.999,382.002,188.999z M222.001,238.999h-30v-30h30
			V238.999z M272.001,338.999h-30v-30h30V338.999z M272.001,288.999h-30v-30h30V288.999z M272.001,238.999h-30v-30h30V238.999z
			 M322.002,338.999h-30.001v-30h30.001V338.999z M322.002,288.999h-30.001v-30h30.001V288.999z M322.002,238.999h-30.001v-30
			h30.001V238.999z M372.002,338.999h-30v-30h30V338.999z M372.002,288.999h-30v-30h30V288.999z M372.002,238.999h-30v-30h30
			V238.999z"/>
	</g>
</g>
<g>
</g>
<g>
</g>
<g>
</g>
<g>
</g>
<g>
</g>
<g>
</g>
<g>
</g>
<g>
</g>
<g>
</g>
<g>
</g>
<g>
</g>
<g>
</g>
<g>
</g>
<g>
</g>
<g>
</g>
</svg>
